<svg xmlns="http://www.w3.org/2000/svg" viewBox="0 0 32 32" width="32" height="32">
  <defs>
    <linearGradient id="grad" x1="0%" y1="0%" x2="100%" y2="100%">
      <stop offset="0%" style="stop-color:#3b82f6;stop-opacity:1" />
      <stop offset="100%" style="stop-color:#1d4ed8;stop-opacity:1" />
    </linearGradient>
  </defs>
  
  <!-- 背景圆形 -->
  <circle cx="16" cy="16" r="15" fill="url(#grad)" stroke="#ffffff" stroke-width="1"/>
  
  <!-- 字母 D -->
  <path d="M8 10 L8 22 L13 22 Q17 22 17 16 Q17 10 13 10 Z M10 12 L13 12 Q15 12 15 16 Q15 20 13 20 L10 20 Z" fill="white" font-weight="bold"/>
  
  <!-- 字母 X -->
  <path d="M19 10 L22 16 L25 10 L23 10 L22 12 L21 10 Z M21 22 L22 20 L23 22 L25 22 L22 16 L19 22 Z" fill="white" font-weight="bold"/>
</svg>