<?xml version="1.0" standalone="no"?><!DOCTYPE svg PUBLIC "-//W3C//DTD SVG 1.1//EN" "http://www.w3.org/Graphics/SVG/1.1/DTD/svg11.dtd"><svg t="1754365426645" class="icon" viewBox="0 0 1024 1024" version="1.1" xmlns="http://www.w3.org/2000/svg" p-id="12259" xmlns:xlink="http://www.w3.org/1999/xlink" width="200" height="200"><path d="M512 962c-248.539 0-450-201.461-450-450s201.461-450 450-450 450 201.461 450 450-201.461 450-450 450zM609.996 441.385c6.369 0 12.635 0.485 18.865 1.143-16.927-79.269-101.389-138.219-197.757-138.219-107.723 0-196.027 73.765-196.027 167.4 0 54.069 29.389 98.446 78.439 132.923l-19.593 59.193 68.539-34.477c24.473 4.846 44.169 9.831 68.643 9.831 6.161 0 12.219-0.311 18.346-0.796-3.877-12.476-6.116-26.821-6.127-41.686 0.001-85.525 73.594-155.345 166.674-155.345zM504.593 388.007c14.815 0 24.577 9.727 24.577 24.577 0 14.746-9.761 24.611-24.577 24.611-14.677 0-29.423-9.865-29.423-24.611 0-14.85 14.746-24.577 29.423-24.577zM367.411 437.196c-14.711 0-29.493-9.865-29.493-24.611 0-14.85 14.781-24.577 29.493-24.577s24.473 9.727 24.473 24.577c0 14.746-9.761 24.611-24.473 24.611zM788.923 594.8c0-78.681-78.439-142.857-166.5-142.857-93.289 0-166.743 64.177-166.743 142.857 0 78.854 73.454 142.857 166.743 142.857 19.489 0 39.185-4.95 58.777-9.9l53.793 29.561-14.746-49.189c39.357-29.631 68.677-68.954 68.677-113.331zM568.354 570.154c-9.727 0-19.627-9.727-19.627-19.696 0-9.831 9.9-19.661 19.627-19.661 14.885 0 24.577 9.831 24.577 19.661 0 9.969-9.693 19.731-24.577 19.731zM676.215 570.154c-9.693 0-19.523-9.727-19.523-19.696 0-9.831 9.796-19.661 19.523-19.661 14.643 0 24.473 9.831 24.473 19.661 0 9.969-9.831 19.731-24.473 19.731z" p-id="12260" data-spm-anchor-id="a313x.search_index.0.i13.6a0e3a8196pJXG" class="selected" fill="#ffffff"></path></svg>