<?xml version="1.0" standalone="no"?><!DOCTYPE svg PUBLIC "-//W3C//DTD SVG 1.1//EN" "http://www.w3.org/Graphics/SVG/1.1/DTD/svg11.dtd"><svg t="1754365480039" class="icon" viewBox="0 0 1042 1024" version="1.1" xmlns="http://www.w3.org/2000/svg" p-id="14399" xmlns:xlink="http://www.w3.org/1999/xlink" width="203.515625" height="200"><path d="M513.956201 0C231.092396 0 1.956201 229.136194 1.956201 512S231.092396 1024 513.956201 1024c282.863806 0 512-229.136194 512-512S796.820007 0 513.956201 0zM841.021445 302.678244c-27.562391 12.701563-92.848425 53.219548-38.231704 144.41677C831.241242 494.471843 837.592023 713.573803 586.482125 713.573803c-20.068469 22.227735-161.055817 135.906723-399.591168 71.636815 71.76383-82.433143 149.243364-169.946911 222.27735-252.888117 114.060035-129.428926 228.247085-218.974944 112.154801-311.950385 79.892831-0.889109 231.676507-23.116844 266.224758 79.384768l53.473579 2.92136z m-75.574299 48.138923z" p-id="14400" data-spm-anchor-id="a313x.search_index.0.i17.6a0e3a8196pJXG" class="selected" fill="#ffffff"></path></svg>